HIERARCHY
ROOT Root
{
  OFFSET 0.0 0.0 0.0
  CHANNELS 6 Xposition Yposition Zposition Zrotation Yrotation Xrotation
  JOINT Hips
  {
    OFFSET 0.0 100.0 0.0
    CHANNELS 6 Xposition Yposition Zposition Zrotation Yrotation Xrotation
    JOINT Spine1
    {
      OFFSET -0.013727 5.003763 -0.053727
      CHANNELS 3 Zrotation Yrotation Xrotation
      JOINT Spine2
      {
        OFFSET -0.0 7.125301 -0.029825
        CHANNELS 3 Zrotation Yrotation Xrotation
        JOINT Chest
        {
          OFFSET -1e-06 7.550063 -0.815971
          CHANNELS 3 Zrotation Yrotation Xrotation
          JOINT Neck1
          {
            OFFSET -0.181677 26.311295 -0.553348
            CHANNELS 3 Zrotation Yrotation Xrotation
            JOINT Neck2
            {
              OFFSET -3e-06 7.709397 2.302585
              CHANNELS 3 Zrotation Yrotation Xrotation
              JOINT Head
              {
                OFFSET -5e-06 6.128916 1.953709
                CHANNELS 3 Zrotation Yrotation Xrotation
                JOINT HeadEnd
                {
                  OFFSET 0.003598 16.065403 -1.835379
                  CHANNELS 3 Zrotation Yrotation Xrotation
                }
                JOINT Jaw
                {
                  OFFSET 0.002637 0.475592 3.094941
                  CHANNELS 3 Zrotation Yrotation Xrotation
                }
                JOINT LeftEye
                {
                  OFFSET 3.206381 5.380205 7.586883
                  CHANNELS 3 Zrotation Yrotation Xrotation
                }
                JOINT RightEye
                {
                  OFFSET -3.22244 5.361869 7.558234
                  CHANNELS 3 Zrotation Yrotation Xrotation
                }
              }
            }
          }
          JOINT LeftShoulder
          {
            OFFSET 1.621652 23.237164 5.113413
            CHANNELS 3 Zrotation Yrotation Xrotation
            JOINT LeftArm
            {
              OFFSET 14.919846 2e-06 -5.502326
              CHANNELS 3 Zrotation Yrotation Xrotation
              JOINT LeftForeArm
              {
                OFFSET 28.739307 0.0 -0.002588
                CHANNELS 3 Zrotation Yrotation Xrotation
                JOINT LeftHand
                {
                  OFFSET 27.093981 -1e-06 0.002609
                  CHANNELS 3 Zrotation Yrotation Xrotation
                  JOINT LeftHandThumb1
                  {
                    OFFSET 2.276482 -1.392045 3.191413
                    CHANNELS 3 Zrotation Yrotation Xrotation
                    JOINT LeftHandThumb2
                    {
                      OFFSET 4.012836 -1.828127 1.641654
                      CHANNELS 3 Zrotation Yrotation Xrotation
                      JOINT LeftHandThumb3
                      {
                        OFFSET 2.798515 0.0 -3e-06
                        CHANNELS 3 Zrotation Yrotation Xrotation
                        JOINT LeftHandThumbEnd
                        {
                          OFFSET 3.180793 -4e-06 4e-06
                          CHANNELS 3 Zrotation Yrotation Xrotation
                        }
                      }
                    }
                  }
                  JOINT LeftHandIndex1
                  {
                    OFFSET 3.247555 -0.531998 2.296169
                    CHANNELS 3 Zrotation Yrotation Xrotation
                    JOINT LeftHandIndex2
                    {
                      OFFSET 6.364578 0.01206 0.1786
                      CHANNELS 3 Zrotation Yrotation Xrotation
                      JOINT LeftHandIndex3
                      {
                        OFFSET 3.662364 0.0 0.0
                        CHANNELS 3 Zrotation Yrotation Xrotation
                        JOINT LeftHandIndex4
                        {
                          OFFSET 2.329242 4e-06 4e-06
                          CHANNELS 3 Zrotation Yrotation Xrotation
                          JOINT LeftHandIndexEnd
                          {
                            OFFSET 2.759615 -0.180537 -0.113024
                            CHANNELS 3 Zrotation Yrotation Xrotation
                          }
                        }
                      }
                    }
                  }
                  JOINT LeftHandMiddle1
                  {
                    OFFSET 3.163495 0.240981 1.000332
                    CHANNELS 3 Zrotation Yrotation Xrotation
                    JOINT LeftHandMiddle2
                    {
                      OFFSET 6.19078 -0.259278 -1.002548
                      CHANNELS 3 Zrotation Yrotation Xrotation
                      JOINT LeftHandMiddle3
                      {
                        OFFSET 4.35652 -4e-06 -1e-06
                        CHANNELS 3 Zrotation Yrotation Xrotation
                        JOINT LeftHandMiddle4
                        {
                          OFFSET 2.996877 -8e-06 0.0
                          CHANNELS 3 Zrotation Yrotation Xrotation
                          JOINT LeftHandMiddleEnd
                          {
                            OFFSET 2.304287 -0.294569 -0.031741
                            CHANNELS 3 Zrotation Yrotation Xrotation
                          }
                        }
                      }
                    }
                  }
                  JOINT LeftHandRing1
                  {
                    OFFSET 2.882643 -0.053652 -0.322543
                    CHANNELS 3 Zrotation Yrotation Xrotation
                    JOINT LeftHandRing2
                    {
                      OFFSET 5.854541 -0.486202 -1.373841
                      CHANNELS 3 Zrotation Yrotation Xrotation
                      JOINT LeftHandRing3
                      {
                        OFFSET 4.350578 0.0 3e-06
                        CHANNELS 3 Zrotation Yrotation Xrotation
                        JOINT LeftHandRing4
                        {
                          OFFSET 2.651321 7e-06 2e-06
                          CHANNELS 3 Zrotation Yrotation Xrotation
                          JOINT LeftHandRingEnd
                          {
                            OFFSET 1.936105 0.077687 -7.1e-05
                            CHANNELS 3 Zrotation Yrotation Xrotation
                          }
                        }
                      }
                    }
                  }
                  JOINT LeftHandPinky1
                  {
                    OFFSET 2.8655 -0.310005 -1.600378
                    CHANNELS 3 Zrotation Yrotation Xrotation
                    JOINT LeftHandPinky2
                    {
                      OFFSET 5.087849 -1.331141 -1.77123
                      CHANNELS 3 Zrotation Yrotation Xrotation
                      JOINT LeftHandPinky3
                      {
                        OFFSET 3.070974 4e-06 0.0
                        CHANNELS 3 Zrotation Yrotation Xrotation
                        JOINT LeftHandPinky4
                        {
                          OFFSET 1.549672 0.0 1e-06
                          CHANNELS 3 Zrotation Yrotation Xrotation
                          JOINT LeftHandPinkyEnd
                          {
                            OFFSET 1.944893 -0.157802 0.057219
                            CHANNELS 3 Zrotation Yrotation Xrotation
                          }
                        }
                      }
                    }
                  }
                }
              }
            }
          }
          JOINT RightShoulder
          {
            OFFSET -1.380118 23.180309 5.214158
            CHANNELS 3 Zrotation Yrotation Xrotation
            JOINT RightArm
            {
              OFFSET -15.037196 1.2e-05 -5.545604
              CHANNELS 3 Zrotation Yrotation Xrotation
              JOINT RightForeArm
              {
                OFFSET -28.736639 2e-06 -0.002597
                CHANNELS 3 Zrotation Yrotation Xrotation
                JOINT RightHand
                {
                  OFFSET -27.133619 -0.0 0.002613
                  CHANNELS 3 Zrotation Yrotation Xrotation
                  JOINT RightHandThumb1
                  {
                    OFFSET -2.274032 -1.383988 3.163127
                    CHANNELS 3 Zrotation Yrotation Xrotation
                    JOINT RightHandThumb2
                    {
                      OFFSET -4.011429 -1.827466 1.640914
                      CHANNELS 3 Zrotation Yrotation Xrotation
                      JOINT RightHandThumb3
                      {
                        OFFSET -2.794935 -4e-06 -3e-06
                        CHANNELS 3 Zrotation Yrotation Xrotation
                        JOINT RightHandThumbEnd
                        {
                          OFFSET -3.183852 4e-06 1e-06
                          CHANNELS 3 Zrotation Yrotation Xrotation
                        }
                      }
                    }
                  }
                  JOINT RightHandIndex1
                  {
                    OFFSET -3.253266 -0.520057 2.282866
                    CHANNELS 3 Zrotation Yrotation Xrotation
                    JOINT RightHandIndex2
                    {
                      OFFSET -6.341917 0.012471 0.178266
                      CHANNELS 3 Zrotation Yrotation Xrotation
                      JOINT RightHandIndex3
                      {
                        OFFSET -3.654871 -8e-06 -0.0
                        CHANNELS 3 Zrotation Yrotation Xrotation
                        JOINT RightHandIndex4
                        {
                          OFFSET -2.327586 0.0 1e-06
                          CHANNELS 3 Zrotation Yrotation Xrotation
                          JOINT RightHandIndexEnd
                          {
                            OFFSET -2.76179 -0.180656 -0.113078
                            CHANNELS 3 Zrotation Yrotation Xrotation
                          }
                        }
                      }
                    }
                  }
                  JOINT RightHandMiddle1
                  {
                    OFFSET -3.168106 0.246593 1.00103
                    CHANNELS 3 Zrotation Yrotation Xrotation
                    JOINT RightHandMiddle2
                    {
                      OFFSET -6.180828 -0.258836 -1.000895
                      CHANNELS 3 Zrotation Yrotation Xrotation
                      JOINT RightHandMiddle3
                      {
                        OFFSET -4.348901 0.0 -0.0
                        CHANNELS 3 Zrotation Yrotation Xrotation
                        JOINT RightHandMiddle4
                        {
                          OFFSET -3.00024 -4e-06 -2e-06
                          CHANNELS 3 Zrotation Yrotation Xrotation
                          JOINT RightHandMiddleEnd
                          {
                            OFFSET -2.30252 -0.29437 -0.031706
                            CHANNELS 3 Zrotation Yrotation Xrotation
                          }
                        }
                      }
                    }
                  }
                  JOINT RightHandRing1
                  {
                    OFFSET -2.88569 -0.067952 -0.308858
                    CHANNELS 3 Zrotation Yrotation Xrotation
                    JOINT RightHandRing2
                    {
                      OFFSET -5.854198 -0.48613 -1.373731
                      CHANNELS 3 Zrotation Yrotation Xrotation
                      JOINT RightHandRing3
                      {
                        OFFSET -4.33881 -4e-06 -0.0
                        CHANNELS 3 Zrotation Yrotation Xrotation
                        JOINT RightHandRing4
                        {
                          OFFSET -2.654903 -4e-06 4e-06
                          CHANNELS 3 Zrotation Yrotation Xrotation
                          JOINT RightHandRingEnd
                          {
                            OFFSET -1.933568 0.077527 -5.2e-05
                            CHANNELS 3 Zrotation Yrotation Xrotation
                          }
                        }
                      }
                    }
                  }
                  JOINT RightHandPinky1
                  {
                    OFFSET -2.866425 -0.342796 -1.584145
                    CHANNELS 3 Zrotation Yrotation Xrotation
                    JOINT RightHandPinky2
                    {
                      OFFSET -5.091371 -1.332055 -1.772385
                      CHANNELS 3 Zrotation Yrotation Xrotation
                      JOINT RightHandPinky3
                      {
                        OFFSET -3.062664 -4e-06 1e-06
                        CHANNELS 3 Zrotation Yrotation Xrotation
                        JOINT RightHandPinky4
                        {
                          OFFSET -1.546529 4e-06 -2e-06
                          CHANNELS 3 Zrotation Yrotation Xrotation
                          JOINT RightHandPinkyEnd
                          {
                            OFFSET -1.945119 -0.157718 0.057211
                            CHANNELS 3 Zrotation Yrotation Xrotation
                          }
                        }
                      }
                    }
                  }
                }
              }
            }
          }
        }
      }
    }
    JOINT LeftLeg
    {
      OFFSET 10.043214 -8.434526 2.595655
      CHANNELS 3 Zrotation Yrotation Xrotation
      JOINT LeftShin
      {
        OFFSET -1e-06 -43.221752 -0.802913
        CHANNELS 3 Zrotation Yrotation Xrotation
        JOINT LeftFoot
        {
          OFFSET 1e-06 -42.155094 -3.481523
          CHANNELS 3 Zrotation Yrotation Xrotation
          JOINT LeftToeBase
          {
            OFFSET 0.0 -5.059472 13.231529
            CHANNELS 3 Zrotation Yrotation Xrotation
            JOINT LeftToeEnd
            {
              OFFSET -0.009607 -1.647619 6.513017
              CHANNELS 3 Zrotation Yrotation Xrotation
            }
          }
        }
      }
    }
    JOINT RightLeg
    {
      OFFSET -10.047278 -8.29526 2.620317
      CHANNELS 3 Zrotation Yrotation Xrotation
      JOINT RightShin
      {
        OFFSET 1e-06 -43.362206 -0.805556
        CHANNELS 3 Zrotation Yrotation Xrotation
        JOINT RightFoot
        {
          OFFSET 2e-06 -42.117393 -3.478398
          CHANNELS 3 Zrotation Yrotation Xrotation
          JOINT RightToeBase
          {
            OFFSET -0.0 -5.079609 13.284196
            CHANNELS 3 Zrotation Yrotation Xrotation
            JOINT RightToeEnd
            {
              OFFSET 0.009532 -1.634378 6.460591
              CHANNELS 3 Zrotation Yrotation Xrotation
            }
          }
        }
      }
    }
  }
}
MOTION
Frames: 5
Frame Time: 0.03333333333333333
6.63294 0.0 2.739521 180.0 81.06926 180.0 0.0 98.982788 0.0 1.03908 -0.006355 2.256614 0.706863 -0.087577 0.315448 -0.357185 -0.073003 -5.576429 -1.703859 -1.713536 12.76908 0.106882 3.315095 25.153809 -0.457847 1.044091 -3.96657 -3.115952 1.188711 -15.691129 7.7e-05 -2.3e-05 6e-06 0.020373 -0.041458 0.030302 0.670054 -3.743791 -10.531744 -0.628867 3.662547 -10.536689 -17.199371 -5.16974 21.551632 -52.8316 -6.830091 2.645936 -0.886825 -41.86145 0.383895 1.222678 -2.020749 -4.458341 -5.882107 9.861286 0.702589 -10.936871 -0.360574 7.156205 0.0 8.774826 0.0 -15.865153 18.445566 6.238169 -1.844033 2.498505 -2.507278 -10.1636 4.678946 4.621109 -20.976023 -2e-06 1e-06 -21.226286 2.451698 -3.594002 0.0 -6e-06 -0.0 -1.362682 2.240798 -0.746323 -21.334913 0.58491 3.008323 -13.821213 -3e-06 1e-06 -23.887169 -0.249077 -0.839484 -60.056435 2.328915 -1.189469 -0.294025 1.679688 0.833256 -14.218208 0.093216 1.300581 -34.212048 -0.287563 0.967166 -20.033213 0.964536 1.212843 0.0 0.0 -1e-06 -3.440389 0.788233 0.501655 -15.928185 -3.167308 2.999707 -6.338825 1e-06 1e-06 -18.123444 3.648185 -4.905674 -3e-06 -0.0 -1e-06 9.305321 9.447068 18.591249 65.930885 9.308805 4.997599 0.454524 37.107544 0.192709 3.227116 1.738191 -9.00736 2.243541 -5.255037 -3.180159 14.282893 -0.826596 6.952505 -2e-06 -12.690605 2e-06 15.974001 -17.886864 2.981472 1.665666 -1.955922 -2.878298 4.727799 -4.170589 4.993927 11.020528 3e-06 0.0 12.109053 -3.735716 -2.866785 -1e-06 0.0 -0.0 1.291985 -1.928548 -1.498091 14.800129 0.567467 3.86561 14.242571 -1.341736 -6.660658 19.631969 0.143926 -0.648245 49.996128 -0.905075 -6.240097 0.353029 -1.511151 -0.03194 20.222794 3.68431 2.316633 18.787279 4e-06 0.0 10.751633 -0.479868 1.397908 3e-06 0.0 -1e-06 3.273808 0.305946 -0.580109 21.486816 11.830376 2.266134 8.162928 1e-06 1e-06 18.399082 -3.798987 -4.940573 5e-06 2e-06 -2e-06 7.956285 3.006939 -6.825351 0.074328 -0.441735 11.181087 -10.27677 -2.074932 -6.178101 1.646918 -1.823688 0.578678 -0.0 0.0 2e-06 -12.674487 -13.348724 -3.258853 0.003141 0.222872 6.753629 12.246848 -2.689453 -3.294688 -1.414673 1.007659 -0.293867 0.0 -0.0 -1e-06 
6.879184 0.0 3.850147 180.0 80.828979 180.0 0.0 98.951736 0.0 0.452227 -0.006541 2.157871 1.427579 -0.069818 0.427545 -0.27556 0.054024 -5.496895 -1.524259 -1.663609 12.630867 -0.251716 3.559075 25.167135 -0.55618 0.761325 -3.981007 -3.217824 0.940496 -15.529743 7.7e-05 -2.3e-05 5e-06 0.024296 -0.065105 0.03498 0.683254 -3.770309 -10.542271 -0.634093 3.642834 -10.544846 -17.443117 -4.998761 21.516861 -53.91127 -7.06511 0.290457 -0.869003 -39.912685 0.316946 1.568615 -1.481732 -4.789715 -5.88211 9.86129 0.702591 -10.93688 -0.360576 7.156207 1e-06 8.77483 -2e-06 -15.832268 18.328754 6.212043 -1.844033 2.498504 -2.507279 -10.163608 4.678946 4.62111 -20.976038 -5e-06 2e-06 -21.226301 2.451696 -3.594002 1e-06 -6e-06 -0.0 -1.362683 2.240799 -0.746324 -21.33493 0.584907 3.008322 -13.821223 -3e-06 -0.0 -23.887184 -0.249082 -0.839484 -60.13546 2.343789 -1.244985 -0.294024 1.679687 0.833256 -14.218218 0.093213 1.300579 -34.212074 -0.287567 0.967171 -20.03323 0.964535 1.212843 0.0 0.0 -1e-06 -3.440391 0.788234 0.501655 -15.928196 -3.167312 2.999706 -6.33883 -1e-06 0.0 -18.123459 3.648182 -4.905674 -3e-06 0.0 -3e-06 8.478242 10.230815 18.486574 65.975906 10.473765 7.565204 0.410112 36.149761 0.233225 4.129947 0.678629 -7.457028 2.243543 -5.255041 -3.180159 14.282905 -0.826593 6.952507 -4e-06 -12.690618 -0.0 15.957373 -17.92561 2.972969 1.665668 -1.955922 -2.8783 4.727803 -4.170592 4.993928 11.020537 5e-06 -0.0 12.109062 -3.735718 -2.866787 -2e-06 -0.0 1e-06 1.291986 -1.92855 -1.49809 14.800144 0.567471 3.865611 14.242585 -1.341736 -6.660664 19.63199 0.143928 -0.648246 49.951904 -0.927567 -6.229731 0.353029 -1.511151 -0.031941 20.222811 3.684316 2.316629 18.787292 7e-06 -1e-06 10.751641 -0.479866 1.397906 2e-06 0.0 -2e-06 3.27381 0.305948 -0.580112 21.486837 11.83039 2.266134 8.162935 2e-06 -1e-06 18.399103 -3.798986 -4.94058 3e-06 0.0 -1e-06 9.411406 3.589492 -6.695749 0.051597 -0.51471 11.109517 -10.847168 -2.491612 -5.717498 1.653309 -1.797025 0.346753 0.0 -0.0 2e-06 -11.425877 -13.649214 -4.084122 0.036417 0.191747 8.916916 12.139728 -2.369384 -4.425061 -1.400456 0.987882 0.023109 0.0 0.0 -1e-06 
7.131243 0.0 4.829746 180.0 80.828484 180.0 0.0 98.939423 0.0 -0.11282 -0.006286 2.160461 2.029497 -0.042607 0.454011 -0.198048 0.130883 -5.45342 -1.320196 -1.613747 12.471616 -0.464624 3.710354 25.19278 -0.576387 0.495445 -3.957743 -3.38653 0.827461 -15.371047 7.7e-05 -2.3e-05 5e-06 0.032423 -0.099855 0.038152 0.703612 -3.810942 -10.563939 -0.63795 3.614459 -10.56072 -17.466608 -4.887206 21.451464 -55.381771 -6.605789 -1.495478 -0.577778 -39.317692 0.113349 1.699073 -1.17183 -5.868697 -5.882106 9.861289 0.70259 -10.936871 -0.360574 7.156204 -0.0 8.774828 -1e-06 -15.839615 18.235012 6.160416 -1.844032 2.498505 -2.507277 -10.163599 4.678946 4.621108 -20.976021 -2e-06 1e-06 -21.226284 2.451699 -3.594002 2e-06 -6e-06 -1e-06 -1.362682 2.240799 -0.746324 -21.334911 0.58491 3.008323 -13.821213 -1e-06 1e-06 -23.887163 -0.249078 -0.839486 -60.145077 2.339499 -1.313427 -0.294025 1.679688 0.833256 -14.218207 0.093216 1.300581 -34.212048 -0.287561 0.967168 -20.033211 0.964537 1.212842 -1e-06 0.0 -0.0 -3.440388 0.788234 0.501656 -15.928185 -3.167309 2.999707 -6.338825 -1e-06 0.0 -18.123444 3.648183 -4.905672 -3e-06 0.0 -2e-06 8.0363 10.765593 18.365667 65.713211 11.224027 10.053304 0.178042 35.793739 0.114526 5.073109 -0.364674 -5.942435 2.243543 -5.255039 -3.180158 14.282896 -0.826598 6.952506 -0.0 -12.690608 2e-06 15.936416 -17.93903 2.952044 1.665667 -1.955922 -2.8783 4.727801 -4.170588 4.993924 11.02053 1e-06 -1e-06 12.109056 -3.735717 -2.866787 0.0 -1e-06 -1e-06 1.291986 -1.92855 -1.498089 14.800131 0.567467 3.865606 14.242577 -1.341739 -6.660663 19.631973 0.143924 -0.648249 49.822124 -0.981776 -6.236191 0.353029 -1.511152 -0.031941 20.222795 3.684308 2.316628 18.787279 2e-06 -3e-06 10.751629 -0.479871 1.397903 0.0 -0.0 1e-06 3.273808 0.305946 -0.580112 21.486816 11.830372 2.26613 8.162928 0.0 -2e-06 18.39909 -3.798985 -4.940581 4e-06 1e-06 -2e-06 10.72746 3.942641 -6.493779 0.051642 -0.5951 10.836546 -11.221867 -2.486448 -5.283841 1.653178 -1.804295 0.108378 0.0 -0.0 2e-06 -10.163082 -13.616404 -4.614793 0.048723 0.185897 10.114515 11.893186 -2.150626 -5.209178 -1.38998 0.977149 0.169127 0.0 0.0 -1e-06 
7.418892 0.0 5.612791 180.0 80.962082 180.0 0.0 98.970078 0.0 -0.579633 -0.005757 2.236214 2.489164 -0.015667 0.284197 -0.16154 0.087984 -5.505367 -1.096098 -1.548439 12.462579 -0.51345 3.55776 25.286488 -0.675288 0.504321 -3.919991 -3.544895 0.78829 -15.202569 7.7e-05 -2.3e-05 5e-06 0.026606 -0.080831 0.057525 0.701613 -3.800555 -10.559036 -0.64789 3.641077 -10.550565 -17.502258 -4.797456 21.254229 -56.742989 -5.584597 -2.390682 -0.242162 -39.607208 -0.031703 1.616839 -1.369735 -7.117099 -5.882102 9.861279 0.70259 -10.936865 -0.360575 7.156206 0.0 8.774819 -1e-06 -15.915644 18.182978 6.07931 -1.844031 2.498503 -2.507277 -10.163594 4.678942 4.621109 -20.976009 -2e-06 5e-06 -21.226271 2.451698 -3.593996 1e-06 -5e-06 -1e-06 -1.36268 2.240795 -0.746323 -21.3349 0.58491 3.008326 -13.821205 -1e-06 4e-06 -23.887154 -0.249074 -0.839479 -60.115711 2.30205 -1.424866 -0.294025 1.679686 0.833255 -14.218199 0.093215 1.300582 -34.212032 -0.287558 0.967176 -20.033205 0.964541 1.212845 0.0 -0.0 0.0 -3.440386 0.788232 0.501656 -15.928176 -3.167306 2.999709 -6.338822 1e-06 1e-06 -18.123436 3.648182 -4.905666 -5e-06 1e-06 -3e-06 8.01274 10.917256 18.186682 65.437195 11.451994 10.960224 0.129181 36.04715 0.093666 5.325622 -1.100919 -4.814606 2.243541 -5.255036 -3.180156 14.282883 -0.826595 6.952502 -2e-06 -12.6906 -1e-06 15.918877 -17.886465 3.00738 1.665665 -1.955921 -2.878298 4.727796 -4.170588 4.993922 11.020519 2e-06 -2e-06 12.109046 -3.735715 -2.866783 0.0 -0.0 0.0 1.291984 -1.928547 -1.49809 14.800122 0.567466 3.865608 14.242562 -1.341737 -6.660656 19.631954 0.143924 -0.648244 49.814686 -1.044041 -6.229105 0.353029 -1.511152 -0.031939 20.222784 3.684308 2.316631 18.787266 4e-06 -1e-06 10.751625 -0.479868 1.397904 -1e-06 0.0 0.0 3.273805 0.305947 -0.58011 21.486799 11.830367 2.266132 8.162921 1e-06 1e-06 18.399071 -3.798984 -4.940573 5e-06 1e-06 -3e-06 11.791715 4.168983 -5.95743 0.071324 -0.647084 9.894721 -11.32222 -2.381948 -4.716855 1.662352 -1.844771 0.152603 -0.0 0.0 2e-06 -9.078617 -13.46052 -4.767943 0.030154 0.214633 10.381049 11.559055 -1.866696 -5.568901 -1.391577 0.983505 0.174305 0.0 -0.0 -1e-06 
7.702662 0.0 6.244873 180.0 81.124733 180.0 0.0 98.9814 0.0 -0.941272 -0.005007 2.307895 2.757205 -0.048432 0.097547 -0.139223 0.109682 -5.553595 -0.86047 -1.663711 12.431405 -0.425929 3.581383 25.416168 -0.584626 0.229544 -3.917061 -3.692634 0.632137 -14.759943 7.7e-05 -2.3e-05 5e-06 0.041826 -0.128336 0.039905 0.719811 -3.848098 -10.593391 -0.635298 3.594598 -10.587233 -17.647474 -4.715652 21.460745 -57.789875 -4.885298 -2.670721 0.095841 -39.863968 -0.217309 1.380462 -1.61212 -8.681792 -5.88211 9.861291 0.702591 -10.936877 -0.360574 7.156209 0.0 8.77483 -0.0 -15.912866 18.289883 6.070111 -1.844034 2.498506 -2.507279 -10.163606 4.678948 4.62111 -20.97604 -3e-06 2e-06 -21.226301 2.451698 -3.594002 1e-06 -6e-06 -1e-06 -1.362683 2.240799 -0.746324 -21.334929 0.584912 3.008325 -13.821222 -2e-06 1e-06 -23.887184 -0.249078 -0.839483 -60.153866 2.257465 -1.334502 -0.294026 1.679689 0.833256 -14.218219 0.093216 1.300581 -34.212074 -0.287562 0.967172 -20.03323 0.964538 1.212845 1e-06 0.0 -1e-06 -3.44039 0.788233 0.501656 -15.928198 -3.167312 2.999709 -6.338829 1e-06 1e-06 -18.123459 3.648185 -4.905673 -3e-06 1e-06 -2e-06 8.44092 10.813763 18.125517 64.943253 11.508748 11.164691 -0.1142 36.427547 -0.054408 5.049536 -1.340398 -5.252346 2.243544 -5.255038 -3.180157 14.282895 -0.826596 6.952505 -0.0 -12.690608 0.0 15.897595 -18.047302 2.976472 1.665667 -1.955923 -2.8783 4.7278 -4.170588 4.993925 11.020528 2e-06 -2e-06 12.109054 -3.735719 -2.866786 0.0 -0.0 1e-06 1.291986 -1.92855 -1.498088 14.800132 0.567466 3.865608 14.242576 -1.341738 -6.660661 19.631973 0.143926 -0.648246 49.866589 -1.125812 -6.326766 0.353029 -1.511152 -0.03194 20.222799 3.68431 2.316631 18.787279 2e-06 -2e-06 10.751631 -0.479871 1.397904 0.0 0.0 -0.0 3.273809 0.305947 -0.580109 21.486816 11.830377 2.266133 8.16293 1e-06 0.0 18.399088 -3.798989 -4.940577 4e-06 2e-06 -3e-06 12.64153 4.057559 -5.095887 0.078655 -0.63192 8.356766 -11.903373 -1.444982 -4.19697 1.645247 -1.899279 0.04032 0.0 -0.0 2e-06 -8.19155 -12.668786 -4.919286 0.024056 0.21173 10.661848 11.269533 -2.298134 -6.033089 -1.391122 0.997218 0.089829 0.0 0.0 -1e-06 
